Coordinates
version=1
nRows=19
nColumns=36
inDegrees=yes

Units are S.I. units (second, meters, Newtons, ...)
If the header above contains a line with 'inDegrees', this indicates whether rotational values are in degrees (yes) or radians (no).

endheader
time	pelvis_tilt	pelvis_list	pelvis_rotation	pelvis_tx	pelvis_ty	pelvis_tz	hip_flexion_r	hip_adduction_r	hip_rotation_r	knee_angle_r	knee_angle_r_beta	ankle_angle_r	subtalar_angle_r	mtp_angle_r	hip_flexion_l	hip_adduction_l	hip_rotation_l	knee_angle_l	knee_angle_l_beta	ankle_angle_l	subtalar_angle_l	mtp_angle_l	lumbar_extension	lumbar_bending	lumbar_rotation	arm_flex_r	arm_add_r	arm_rot_r	elbow_flex_r	pro_sup_r	arm_flex_l	arm_add_l	arm_rot_l	elbow_flex_l	pro_sup_l
     29.98333330	      7.14360056	     -1.25300573	     -6.11100573	      0.45037936	      1.04378375	      0.67056230	     17.53730665	     -1.33277361	      1.55421055	     53.24630487	      0.92932333	     13.41628600	    -11.55002422	     -7.49999987	     -7.32550143	      1.20620933	      1.06581664	      9.66788923	      0.16873650	      7.69219782	     -7.49622564	     -7.49999987	    -23.58145037	     -2.26868623	      8.75410372	     -5.30097610	    -17.19350527	     -1.68172184	     37.36809040	     80.76198576	     19.64639841	    -13.15738748	     26.97334863	     28.36763354	     86.62423847
     30.00000000	      7.25673482	     -1.43350648	     -5.71135468	      0.44951725	      1.04140626	      0.67184278	     18.40329337	     -0.99744074	      1.18602465	     49.33338713	      0.86103004	     12.35952086	    -11.36572836	     -7.49999987	     -9.23584359	      0.98365930	      0.84402056	      8.99355005	      0.15696706	      7.93840514	     -7.47228668	     -7.49999987	    -24.03070356	     -1.74545937	      8.85711199	     -6.98781857	    -16.45269294	     -4.67125793	     38.01319312	     81.17028518	     20.71203056	    -13.61454776	     26.81444061	     30.56966978	     85.10592236
     30.01666670	      7.18754810	     -1.58923653	     -5.45225051	      0.44623975	      1.04038557	      0.67051397	     19.07231022	     -0.76423278	      0.81528139	     44.60331277	      0.77847467	     10.92942198	    -11.18206204	     -7.49999987	    -10.79282144	      0.76484396	      0.70458176	      8.51735186	      0.14865583	      8.24259982	     -7.47616005	     -7.49999987	    -24.14242966	     -1.27133636	      8.82336367	     -7.99747702	    -16.14747127	     -5.28993798	     37.56785309	     80.69019726	     21.57076470	    -14.00477081	     26.09051009	     32.41463108	     83.27780427
     30.03333330	      6.99812520	     -1.62872286	     -5.28395578	      0.44225915	      1.03942779	      0.66833401	     19.56651745	     -0.72474568	      0.53309635	     39.28680610	      0.68568412	      9.21477647	    -10.87367571	     -7.49999987	    -12.06118096	      0.66352515	      0.66249742	      8.07655338	      0.14096245	      8.74766406	     -7.32877135	     -7.49999987	    -24.11187693	     -0.88805045	      8.89011700	     -9.13878856	    -15.75691098	     -6.25570524	     37.48795631	     80.39323530	     22.27067630	    -14.24534997	     25.20270052	     34.28814370	     81.88753160
     30.05000000	      6.70371193	     -1.52479361	     -5.11909338	      0.44005384	      1.03727728	      0.66711179	     19.93591390	     -0.90205393	      0.35879053	     33.52220138	      0.58507279	      7.14157954	    -10.48797572	     -7.49999987	    -13.09975600	      0.68594575	      0.68140266	      7.59895768	      0.13262683	      9.29003799	     -7.07033127	     -7.49999987	    -23.97596981	     -0.65210894	      9.01442610	    -10.30180429	    -15.36387571	     -7.43294124	     37.27789577	     80.43352493	     22.91045968	    -14.44264714	     24.18393589	     36.10814331	     80.83545765
     30.06666670	      6.38367231	     -1.25946161	     -4.94386136	      0.44007430	      1.03433864	      0.66698484	     20.10428354	     -1.30065670	      0.25732723	     27.50295794	      0.48001717	      5.01846434	     -9.88186125	     -7.49999987	    -14.03092549	      0.84785848	      0.74916981	      7.11223447	      0.12413191	      9.64107660	     -6.95804798	     -7.49999987	    -23.70882289	     -0.55421598	      8.96009610	    -11.18917603	    -14.98956925	     -8.14419815	     36.65463527	     80.26727507	     23.21902673	    -14.61292879	     23.14422154	     37.80795700	     79.68658793
     30.08333330	      6.08753146	     -0.85418515	     -4.77558212	      0.44163323	      1.03159059	      0.66750218	     20.07767512	     -1.91258732	     -0.03923307	     21.63183069	      0.37754667	      3.49756537	     -8.38700644	     -7.49999987	    -14.90841330	      1.12672308	      0.65057180	      6.72886605	      0.11744087	      9.98137687	     -6.63435364	     -7.49999987	    -23.26070920	     -0.59373252	      8.71200357	    -11.80586114	    -14.61312932	     -8.76635242	     35.59356741	     80.23684225	     23.29385185	    -14.80180769	     22.13499321	     39.00370645	     78.77531222
     30.10000000	      5.75694414	     -0.39539958	     -4.59328765	      0.44466690	      1.02818236	      0.66926072	     19.95728658	     -2.54107182	     -0.47917916	     16.24874137	      0.28359404	      2.67374788	     -6.38698914	     -7.49999987	    -15.64810143	      1.45199702	      0.64570963	      6.57791639	      0.11480630	     10.41787973	     -6.37955014	     -7.49999987	    -22.57506088	     -0.70383696	      8.27106929	    -12.07746367	    -14.23245955	     -9.09876868	     33.99092900	     80.06597492	     22.91899748	    -15.05162215	     20.83169481	     40.14911671	     77.65003014
     30.11666670	      5.45025198	     -0.03592270	     -4.39919232	      0.44862070	      1.02353479	      0.67336719	     19.72838800	     -2.95657494	     -0.96597625	     11.67301313	      0.20373251	      2.58789676	     -4.00655785	     -7.49999987	    -16.34286956	      1.66688545	      0.71007898	      6.70059113	      0.11694738	     11.30702112	     -5.88890605	     -7.49999987	    -21.76794106	     -0.75778651	      7.91922987	    -12.32005403	    -13.90239069	     -9.24628681	     32.43853273	     80.10909296	     22.28883354	    -15.22284054	     19.44676171	     41.04622091	     76.97672273
     30.13333330	      5.06529534	      0.13198138	     -4.19177340	      0.45213307	      1.01891293	      0.67999427	     19.60202024	     -3.04293922	     -1.45786963	      8.37688284	      0.14620419	      2.99868543	     -1.37007175	     -7.49999987	    -16.88244116	      1.66573317	      0.96382985	      7.07353298	      0.12345644	     12.53050662	     -5.43585217	     -7.49999987	    -20.76544819	     -0.71100620	      7.89958836	    -12.67886451	    -13.62381342	     -9.20487145	     30.83173111	     79.55366684	     21.54655369	    -15.28330658	     18.18809083	     41.87027786	     76.12205597
     30.15000000	      4.75349915	      0.00612354	     -3.97622128	      0.45416281	      1.01620259	      0.68800026	     19.37173023	     -2.65554567	     -1.37695354	      6.49171905	      0.11330187	      3.01141625	     -0.04192093	     -7.49999987	    -17.40225768	      1.32473508	      1.21727082	      7.65097205	      0.13353465	     13.80521777	     -4.96965515	     -7.49999987	    -19.84541200	     -0.42691879	      8.16016802	    -13.38226248	    -13.43133247	     -9.17910952	     30.18225263	     79.56095877	     21.07681052	    -15.35678467	     17.81122214	     42.13866409	     76.05971915
     30.16666670	      4.54358890	     -0.42859851	     -3.78173137	      0.45541738	      1.01372759	      0.69566601	     19.03046023	     -1.85769025	     -1.44239804	      6.11577899	      0.10674048	      2.81022220	      0.93989100	     -7.49999987	    -17.93032374	      0.59021519	      0.97985377	      8.46367454	      0.14771899	     15.01740490	     -3.78639482	     -7.49999987	    -19.04444798	      0.05570071	      8.30234252	    -13.56097100	    -13.28004969	     -9.01108578	     29.11994721	     79.54389441	     20.41134257	    -15.33609830	     16.83908363	     42.32809431	     75.97593591
     30.18333330	      4.20657073	     -1.03548724	     -3.52623551	      0.45726809	      1.00937801	      0.70180971	     18.82759373	     -0.81946321	     -1.35392160	      6.90464756	      0.12050883	      1.91134413	      0.63702247	     -7.49999987	    -18.15935867	     -0.41660009	      0.81768295	      9.68159108	      0.16897564	     15.42771001	     -3.18827862	     -7.49999987	    -18.08183040	      0.74641763	      8.06178176	    -13.12409971	    -13.28018235	     -7.98411859	     27.43102916	     79.56280950	     19.30163488	    -15.38594758	     15.20305126	     42.68473108	     75.95966765
     30.20000000	      4.07689850	     -1.77449061	     -3.32910580	      0.45972644	      1.00517372	      0.70568463	     18.48302021	      0.34267736	     -1.29084670	      8.39324744	      0.14648980	      0.85413316	      0.02296094	     -7.49999987	    -18.34300024	     -1.63002320	      0.25695520	     11.59239210	      0.20232541	     15.50040374	     -2.36932633	     -7.49999987	    -17.54811328	      1.61047874	      7.60901140	    -12.89429362	    -13.58847301	     -6.19763153	     27.27116238	     79.52860766	     17.78131506	    -15.58172254	     13.26355076	     43.59696736	     76.44883416
     30.21666670	      3.82004150	     -2.47178670	     -3.22225372	      0.46079855	      1.00354994	      0.70710979	     18.43082388	      1.41862103	     -1.16322653	     10.22491537	      0.17845844	      0.03273078	     -0.64045535	     -7.49999987	    -17.93950362	     -2.86996143	     -0.49733502	     14.40611919	      0.25143421	     15.21392902	     -1.67802770	     -7.49999987	    -16.88319108	      2.42014180	      7.31821882	    -12.43292418	    -13.87977024	     -4.57878007	     26.85749677	     79.17460710	     16.34479961	    -15.61842376	     11.57415463	     44.06551228	     77.03050163
     30.23333330	      3.48642732	     -3.11019223	     -3.26596389	      0.45921894	      1.00582616	      0.70772581	     18.54017133	      2.40116577	     -0.82268491	     12.10098847	      0.21120209	     -0.41776173	     -1.50245159	     -7.49999987	    -16.87683370	     -4.10153739	     -1.31454970	     18.19807120	      0.31761626	     14.51101455	     -1.29142966	     -7.49999987	    -16.27053452	      3.14827007	      7.23384271	    -11.85783974	    -14.33014328	     -2.80427282	     26.87204522	     77.89925773	     15.02971752	    -15.56367265	     10.44404285	     44.22271085	     77.11999422
     30.25000000	      3.08981012	     -3.74112360	     -3.39292356	      0.45787310	      1.00954539	      0.70917543	     18.70910775	      3.34069358	     -0.40687170	     13.94521176	      0.24338986	     -0.28488385	     -2.40589474	     -7.49999987	    -15.10072389	     -5.41652112	     -2.07054686	     22.97797891	      0.40104139	     13.07097825	     -1.29736927	     -7.49999987	    -15.69787037	      3.88547951	      7.41306852	    -11.10346483	    -14.77528898	     -1.85982300	     26.98201526	     77.48236168	     13.98169061	    -15.27405776	      9.84732272	     43.72632707	     77.60645454
     30.26666670	      2.85285184	     -4.40867226	     -3.39761881	      0.45931482	      1.01351094	      0.71122545	     18.54379282	      4.26775464	     -0.00413785	     15.59451755	      0.27217568	      0.44560297	     -3.42985035	     -7.49999987	    -12.79475436	     -6.85787284	     -2.46901999	     28.68951343	      0.50072647	     10.53683709	     -1.91847525	     -7.49999987	    -15.43449156	      4.71434415	      6.87658070	     -9.64171583	    -15.63581406	      1.34405288	     27.22482028	     76.05728107	     12.10804111	    -14.87999884	      7.49950023	     43.67506366	     82.19833854
     30.28333330	      2.80943382	     -5.11389990	     -3.26827804	      0.46242229	      1.01710963	      0.71342836	     17.93235910	      5.20791084	      0.33077806	     16.92426745	      0.29538419	      1.64991471	     -4.30286836	     -7.49999987	    -10.07399441	     -8.35872770	     -2.49215001	     35.02764580	      0.61134775	      7.02299595	     -2.93721263	     -7.49999987	    -15.38453401	      5.63826677	      7.05826527	     -8.73296915	    -15.97553254	      1.44176265	     27.62734859	     75.97339187	     11.05218961	    -14.35354278	      7.49894610	     42.81149110	     82.20936620
